<svg xmlns="http://www.w3.org/2000/svg" aria-hidden="true" style="position:absolute;width:0;height:0;overflow:hidden">
  <defs>
    <symbol id="icon-plus" viewBox="0 0 32 32">
      <path stroke-linecap="round" stroke-linejoin="round" stroke-width="2.667" d="M16 6.667v18.667"/>
      <path stroke-linecap="round" stroke-linejoin="round" stroke-width="2.667" d="M6.667 16h18.667"/>
    </symbol>
    <symbol id="icon-eye-fill" viewBox="0 0 32 32">
      <path d="M16 12a4 4 0 0 0 0 8 4 4 0 0 0 0-8zm0 10.667a6.667 6.667 0 0 1 0-13.334 6.667 6.667 0 0 1 0 13.334zM16 6C9.333 6 3.64 10.147 1.333 16c2.307 5.853 8 10 14.667 10s12.36-4.147 14.667-10C28.36 10.147 22.667 6 16 6z"/>
    </symbol>
    <symbol id="icon-menu" viewBox="0 0 32 32">
      <path stroke-linecap="round" stroke-linejoin="round" stroke-width="2.667" d="M4 16h24"/>
      <path stroke-linecap="round" stroke-linejoin="round" stroke-width="2.667" d="M4 8h24"/>
      <path stroke-linecap="round" stroke-linejoin="round" stroke-width="2.667" d="M4 24h24"/>
    </symbol>
    <symbol id="icon-female" viewBox="0 0 32 32">
      <path stroke-linecap="round" stroke-linejoin="round" stroke-width="2" d="M16 17.333a6.667 6.667 0 1 0 0-13.334 6.667 6.667 0 0 0 0 13.334zm0 0V28m-4-4h8"/>
    </symbol>
    <symbol id="icon-male" viewBox="0 0 32 32">
      <path stroke-linecap="round" stroke-linejoin="round" stroke-width="2" d="M16 14.667a6.667 6.667 0 1 0 0 13.334 6.667 6.667 0 0 0 0-13.334zm0 0V4m0 0 5.333 5.333M16 4l-5.333 5.333"/>
    </symbol>
    <symbol id="icon-gender" viewBox="0 0 32 32">
      <path d="M11.694 10.327a4.665 4.665 0 1 0 2.912 3.635.654.654 0 0 1 .313-.672.653.653 0 0 1 .504-.078.67.67 0 0 1 .501.546 5.993 5.993 0 0 1-3.514 6.403 5.997 5.997 0 1 1-.232-11.077.665.665 0 0 1 .433.609.669.669 0 0 1-.403.628.665.665 0 0 1-.515.006z"/>
      <path d="M9.331 26v-5.331a.665.665 0 1 1 1.332 0V26a.665.665 0 1 1-1.332 0z"/>
      <path d="M7.332 22.668a.665.665 0 0 1 .666-.666h3.998a.665.665 0 1 1 0 1.332H7.998a.665.665 0 0 1-.666-.666zm11.93-12.486a4.653 4.653 0 0 0-4.297.943 4.678 4.678 0 0 0-1.315 1.848 4.652 4.652 0 0 0-.288 2.249.67.67 0 0 1-.335.663.665.665 0 0 1-.989-.507 5.997 5.997 0 1 1 3.582 4.801.655.655 0 0 1-.355-.365.668.668 0 0 1 .883-.859 4.665 4.665 0 1 0 3.115-8.773z"/>
      <path d="M21.855 11.477a.665.665 0 0 1 0-.942l4.998-4.998a.658.658 0 0 1 .473-.203.655.655 0 0 1 .477.196.673.673 0 0 1 .196.477.669.669 0 0 1-.203.473l-4.998 4.998a.667.667 0 0 1-.942 0z"/>
      <path d="M27.273 10.007a.669.669 0 0 1-.657-.675l.033-2.648-2.648.033a.67.67 0 0 1-.675-.658.67.67 0 0 1 .658-.675L28 5.333l-.051 4.016a.65.65 0 0 1-.201.468c-.063.061-.137.109-.218.142s-.168.049-.256.047z"/>
    </symbol>
    <symbol id="icon-footprint" viewBox="0 0 32 32">
      <path d="M12.5 5c-1.07 0-2.002.608-2.594 1.438S9 8.34 9 9.5s.314 2.233.906 3.063S11.43 14 12.5 14s2.002-.608 2.594-1.438c.592-.83.906-1.902.906-3.062s-.314-2.233-.906-3.063C14.502 5.607 13.57 5 12.5 5zM16 9.5c0 1.16.314 2.233.906 3.063S18.431 14 19.5 14c1.07 0 2.002-.608 2.594-1.438S23 10.66 23 9.5s-.314-2.233-.906-3.063C21.502 5.607 20.57 5 19.5 5s-2.002.608-2.594 1.438C16.314 7.268 16 8.34 16 9.5zM12.5 7c.312 0 .656.156.97.594.31.437.53 1.133.53 1.906s-.22 1.47-.53 1.906c-.314.438-.658.594-.97.594s-.656-.156-.97-.594c-.31-.437-.53-1.133-.53-1.906s.22-1.47.53-1.906c.314-.438.658-.594.97-.594zm7 0c.312 0 .656.156.97.594.31.437.53 1.133.53 1.906s-.22 1.47-.53 1.906c-.314.438-.658.594-.97.594s-.656-.156-.97-.594c-.31-.437-.53-1.133-.53-1.906s.22-1.47.53-1.906c.314-.438.658-.594.97-.594zm-12 5c-1.07 0-2.002.608-2.594 1.438S4 15.34 4 16.5s.314 2.233.906 3.063C5.498 20.393 6.43 21 7.5 21s2.002-.608 2.594-1.438c.592-.83.906-1.902.906-3.062s-.314-2.233-.906-3.063C9.502 12.607 8.57 12 7.5 12zm17 0c-1.07 0-2.002.608-2.594 1.438S21 15.34 21 16.5s.314 2.233.906 3.063C22.498 20.393 23.43 21 24.5 21s2.002-.608 2.594-1.438c.592-.83.906-1.902.906-3.062s-.314-2.233-.906-3.063C26.502 12.607 25.57 12 24.5 12zm-17 2c.312 0 .656.156.97.594.31.437.53 1.133.53 1.906s-.22 1.47-.53 1.906c-.314.438-.658.594-.97.594s-.656-.156-.97-.594C6.22 17.97 6 17.273 6 16.5s.22-1.47.53-1.906c.314-.438.658-.594.97-.594zm17 0c.312 0 .656.156.97.594.31.437.53 1.133.53 1.906s-.22 1.47-.53 1.906c-.314.438-.658.594-.97.594s-.656-.156-.97-.594c-.31-.437-.53-1.133-.53-1.906s.22-1.47.53-1.906c.314-.438.658-.594.97-.594zM16 16c-1.333 0-2.263.865-2.72 1.625-.454.76-.734 1.392-1 1.656-.153.157-1.118.52-2.124 1.033-.503.257-1.01.6-1.437 1.125-.43.525-.72 1.25-.72 2.063 0 1.92 1.58 3.5 3.5 3.5.866 0 1.77-.28 2.655-.53C15.043 26.216 16 26 16 26s.957.216 1.844.47c.886.25 1.79.53 2.656.53 1.92 0 3.5-1.58 3.5-3.5 0-.794-.293-1.52-.72-2.03-.425-.513-.937-.83-1.436-1.095-1-.53-1.983-.95-2.125-1.094-.24-.237-.51-.89-.97-1.654C18.29 16.86 17.34 16 16 16zm0 2c.66 0 .733.16 1.03.656.3.495.524 1.336 1.25 2.063.825.82 1.867 1 2.626 1.404.38.202.67.417.844.625.173.207.25.396.25.75 0 .84-.66 1.5-1.5 1.5-.29 0-1.224-.22-2.094-.47-.87-.247-1.59-.53-2.406-.53s-1.536.283-2.406.53c-.87.25-1.804.47-2.094.47-.84 0-1.5-.66-1.5-1.5 0-.403.084-.61.25-.814.166-.203.472-.404.844-.593.744-.38 1.78-.53 2.625-1.375.733-.737.953-1.605 1.25-2.095.292-.49.362-.625 1.03-.625L16 18z"/>
    </symbol>
    <symbol id="icon-upload-cloud" viewBox="0 0 32 32">
      <path stroke-linecap="round" stroke-linejoin="round" stroke-width="2.311" d="M16 16v12"/>
      <path stroke-linecap="round" stroke-linejoin="round" stroke-width="2.311" d="M27.187 24.52a6.671 6.671 0 0 0 3.27-7.497A6.669 6.669 0 0 0 24.001 12h-1.68a10.659 10.659 0 0 0-10.72-7.99 10.66 10.66 0 0 0-10.103 8.757 10.669 10.669 0 0 0 2.503 8.967"/>
      <path stroke-linecap="round" stroke-linejoin="round" stroke-width="2.311" d="M21.333 21.333 16 16l-5.333 5.333"/>
    </symbol>
    <symbol id="icon-star" viewBox="0 0 32 32">
      <path stroke-width="2.4" d="M12.4 9.394 16 2.572l3.6 6.822a2.2 2.2 0 0 0 1.571 1.141l7.601 1.315-5.376 5.532a2.2 2.2 0 0 0-.6 1.846l1.098 7.635-6.922-3.404a2.199 2.199 0 0 0-1.941 0l-6.922 3.404 1.098-7.635a2.2 2.2 0 0 0-.6-1.846L3.231 11.85l7.601-1.315a2.202 2.202 0 0 0 1.571-1.141zm16.635 2.185zM7.767 27.031z"/>
    </symbol>
    <symbol id="icon-heart-fill" viewBox="0 0 32 32">
      <path d="M15.991 7.561C13.432 4.539 9.164 3.727 5.958 6.493S2.3 13.886 4.818 17.158c1.613 2.096 5.743 5.983 8.505 8.506.918.839 1.376 1.258 1.926 1.426a2.59 2.59 0 0 0 1.485 0c.55-.168 1.008-.587 1.926-1.426 2.761-2.524 6.892-6.41 8.505-8.507 2.518-3.272 2.122-7.928-1.14-10.665S18.551 4.538 15.992 7.56z"/>
    </symbol>
    <symbol id="icon-user" viewBox="0 0 32 32">
      <path stroke-linecap="round" stroke-linejoin="round" stroke-width="2.667" d="M16 20c-4.227 0-7.986 2.041-10.379 5.208-.515.682-.773 1.022-.764 1.483.006.356.23.805.51 1.025.362.284.865.284 1.869.284h17.527c1.005 0 1.507 0 1.869-.284.28-.22.503-.669.51-1.025.008-.461-.249-.801-.764-1.483C23.985 22.041 20.226 20 15.999 20z"/>
      <path stroke-linecap="round" stroke-linejoin="round" stroke-width="2.667" d="M16 16a6 6 0 1 0 0-12 6 6 0 0 0 0 12z"/>
    </symbol>
    <symbol id="icon-edit" viewBox="0 0 32 32">
      <path stroke-linecap="round" stroke-linejoin="round" stroke-width="2.667" d="M22.667 4a3.766 3.766 0 0 1 4.109-.817 3.766 3.766 0 0 1 2.327 3.484 3.779 3.779 0 0 1-1.104 2.666l-18 18-7.333 2 2-7.333 18-18z"/>
    </symbol>
    <symbol id="icon-trash" viewBox="0 0 32 32">
      <path stroke-linecap="round" stroke-linejoin="round" stroke-width="2.667" d="M4 8h24"/>
      <path stroke-linecap="round" stroke-linejoin="round" stroke-width="2.667" d="M25.333 8v18.667a2.668 2.668 0 0 1-2.667 2.667H9.333a2.668 2.668 0 0 1-2.667-2.667V8m4.001 0V5.333a2.668 2.668 0 0 1 2.667-2.667h5.333a2.668 2.668 0 0 1 2.667 2.667V8"/>
      <path stroke-linecap="round" stroke-linejoin="round" stroke-width="2.667" d="M13.333 14.667v8"/>
      <path stroke-linecap="round" stroke-linejoin="round" stroke-width="2.667" d="M18.667 14.667v8"/>
    </symbol>
    <symbol id="icon-heart" viewBox="0 0 32 32">
      <path stroke-linecap="round" stroke-linejoin="round" stroke-width="2.667" d="M27.788 6.147a7.345 7.345 0 0 0-5.187-2.15 7.33 7.33 0 0 0-5.187 2.15L16.001 7.56l-1.413-1.413a7.333 7.333 0 0 0-10.374 0 7.333 7.333 0 0 0 0 10.374l11.787 11.787 11.787-11.787a7.345 7.345 0 0 0 2.149-5.187 7.33 7.33 0 0 0-2.149-5.187z"/>
    </symbol>
    <symbol id="icon-search" viewBox="0 0 32 32">
      <path stroke-linecap="round" stroke-linejoin="round" stroke-width="3.556" d="M14.667 25.333c5.891 0 10.667-4.776 10.667-10.667S20.558 3.999 14.667 3.999 4 8.775 4 14.666s4.776 10.667 10.667 10.667z"/>
      <path stroke-linecap="round" stroke-linejoin="round" stroke-width="3.556" d="m28.001 28-5.8-5.8"/>
    </symbol>
    <symbol id="icon-calendar" viewBox="0 0 32 32">
      <path stroke-linecap="round" stroke-linejoin="round" stroke-width="2.88" d="M25.333 5.333H6.666A2.667 2.667 0 0 0 3.999 8v18.667a2.667 2.667 0 0 0 2.667 2.667h18.667A2.667 2.667 0 0 0 28 26.667V8a2.667 2.667 0 0 0-2.667-2.667z"/>
      <path stroke-linecap="round" stroke-linejoin="round" stroke-width="2.88" d="M21.333 2.667V8"/>
      <path stroke-linecap="round" stroke-linejoin="round" stroke-width="2.88" d="M10.667 2.667V8"/>
      <path stroke-linecap="round" stroke-linejoin="round" stroke-width="2.88" d="M4 13.333h24"/>
    </symbol>
    <symbol id="icon-check" viewBox="0 0 32 32">
      <path stroke-linecap="round" stroke-linejoin="round" stroke-width="2.182" d="M26.667 9.333 12 24l-6.667-6.667"/>
    </symbol>
    <symbol id="icon-close" viewBox="0 0 32 32">
      <path stroke-linecap="round" stroke-linejoin="round" stroke-width="2.909" d="M25.333 6.667 6.666 25.334m0-18.667 18.667 18.667"/>
    </symbol>
    <symbol id="icon-eye" viewBox="0 0 32 32">
      <path stroke-linecap="round" stroke-linejoin="round" stroke-width="2.909" d="M1.332 16S6.665 5.333 15.999 5.333 30.666 16 30.666 16s-5.333 10.667-14.667 10.667C6.666 26.667 1.332 16 1.332 16z"/>
      <path stroke-linecap="round" stroke-linejoin="round" stroke-width="2.909" d="M16 20a4 4 0 1 0 0-8 4 4 0 0 0 0 8z"/>
    </symbol>
    <symbol id="icon-eye-off" viewBox="0 0 32 32">
      <path stroke-linecap="round" stroke-linejoin="round" stroke-width="2.909" d="M23.922 23.92a13.43 13.43 0 0 1-7.92 2.747C6.669 26.667 1.335 16 1.335 16a24.605 24.605 0 0 1 6.747-7.92m5.12-2.427a12.161 12.161 0 0 1 2.8-.32C25.335 5.333 30.669 16 30.669 16a24.646 24.646 0 0 1-2.88 4.253m-8.961-1.426a4.01 4.01 0 0 1-2.855 1.273 3.996 3.996 0 0 1-3.779-2.501 3.995 3.995 0 0 1 .983-4.424"/>
      <path stroke-linecap="round" stroke-linejoin="round" stroke-width="2.909" d="m1.335 1.333 29.333 29.333"/>
    </symbol>
    <symbol id="icon-chevron-left" viewBox="0 0 32 32">
      <path d="M14.133 16.947a1.334 1.334 0 0 1 0-1.894l6.12-6.107a1.334 1.334 0 1 0-1.88-1.894l-6.12 6.12a4.001 4.001 0 0 0 0 5.654l6.12 6.12a1.336 1.336 0 0 0 1.88-1.894l-6.12-6.107z"/>
    </symbol>
    <symbol id="icon-chevron-right" viewBox="0 0 32 32">
      <path d="M17.867 16.947a1.334 1.334 0 0 0 0-1.894l-6.12-6.107a1.334 1.334 0 1 1 1.88-1.894l6.12 6.12a4.001 4.001 0 0 1 0 5.654l-6.12 6.12a1.337 1.337 0 0 1-2.172-.434 1.331 1.331 0 0 1 .292-1.46l6.12-6.107z"/>
    </symbol>
    <symbol id="icon-chevron-down" viewBox="0 0 32 32">
      <path stroke-linecap="round" stroke-linejoin="round" stroke-width="3.556" d="m8 12 8 8 8-8"/>
    </symbol>
    <symbol id="icon-reset" viewBox="0 0 32 32">
      <path fill="currentColor" d="M18 28A12 12 0 1 0 6 16v6.2l-3.6-3.6L1 20l6 6l6-6l-1.4-1.4L8 22.2V16a10 10 0 1 1 10 10Z" />
    </symbol>
    <symbol id="icon-moon" viewBox="0 0 16 16">
	    <path fill="currentColor" d="M14.438 10.148c.19-.425-.321-.787-.748-.601A5.5 5.5 0 0 1 6.453 2.31c.186-.427-.176-.938-.6-.748a6.501 6.501 0 1 0 8.585 8.586" />
    </symbol>
    <symbol id="icon-sun" viewBox="0 0 16 16">
	    <path fill="currentColor" d="M8 1a.75.75 0 0 1 .75.75v1.5a.75.75 0 0 1-1.5 0v-1.5A.75.75 0 0 1 8 1m2.5 7a2.5 2.5 0 1 1-5 0a2.5 2.5 0 0 1 5 0m2.45-3.89a.75.75 0 1 0-1.06-1.06l-1.062 1.06a.75.75 0 0 0 1.061 1.062zM15 8a.75.75 0 0 1-.75.75h-1.5a.75.75 0 0 1 0-1.5h1.5A.75.75 0 0 1 15 8m-3.11 4.95a.75.75 0 0 0 1.06-1.06l-1.06-1.062a.75.75 0 0 0-1.062 1.061zM8 12a.75.75 0 0 1 .75.75v1.5a.75.75 0 0 1-1.5 0v-1.5A.75.75 0 0 1 8 12m-2.828-.11a.75.75 0 0 0-1.061-1.062L3.05 11.89a.75.75 0 1 0 1.06 1.06zM4 8a.75.75 0 0 1-.75.75h-1.5a.75.75 0 0 1 0-1.5h1.5A.75.75 0 0 1 4 8m.11-2.828A.75.75 0 0 0 5.173 4.11L4.11 3.05a.75.75 0 1 0-1.06 1.06z" />
    </symbol>
    <symbol id="icon-setting" viewBox="0 0 24 24">
	    <path fill="currentColor" d="M19.9 12.66a1 1 0 0 1 0-1.32l1.28-1.44a1 1 0 0 0 .12-1.17l-2-3.46a1 1 0 0 0-1.07-.48l-1.88.38a1 1 0 0 1-1.15-.66l-.61-1.83a1 1 0 0 0-.95-.68h-4a1 1 0 0 0-1 .68l-.56 1.83a1 1 0 0 1-1.15.66L5 4.79a1 1 0 0 0-1 .48L2 8.73a1 1 0 0 0 .1 1.17l1.27 1.44a1 1 0 0 1 0 1.32L2.1 14.1a1 1 0 0 0-.1 1.17l2 3.46a1 1 0 0 0 1.07.48l1.88-.38a1 1 0 0 1 1.15.66l.61 1.83a1 1 0 0 0 1 .68h4a1 1 0 0 0 .95-.68l.61-1.83a1 1 0 0 1 1.15-.66l1.88.38a1 1 0 0 0 1.07-.48l2-3.46a1 1 0 0 0-.12-1.17ZM18.41 14l.8.9l-1.28 2.22l-1.18-.24a3 3 0 0 0-3.45 2L12.92 20h-2.56L10 18.86a3 3 0 0 0-3.45-2l-1.18.24l-1.3-2.21l.8-.9a3 3 0 0 0 0-4l-.8-.9l1.28-2.2l1.18.24a3 3 0 0 0 3.45-2L10.36 4h2.56l.38 1.14a3 3 0 0 0 3.45 2l1.18-.24l1.28 2.22l-.8.9a3 3 0 0 0 0 3.98m-6.77-6a4 4 0 1 0 4 4a4 4 0 0 0-4-4m0 6a2 2 0 1 1 2-2a2 2 0 0 1-2 2" />
    </symbol>
  </defs>
</svg>
